<svg viewBox="0 0 60 61" fill="none" xmlns="http://www.w3.org/2000/svg">
    <path fill-rule="evenodd" clip-rule="evenodd"
        d="M30 5.5C16.1929 5.5 5 16.6929 5 30.5C5 44.3053 16.1899 55.497 29.9945 55.5H30.0055C43.81 55.497 55 44.3053 55 30.5C55 16.6929 43.807 5.5 30 5.5ZM10.351 26.75C10.1206 27.9648 10 29.2183 10 30.5C10 31.7818 10.1206 33.0353 10.351 34.25H17.7079C17.5732 33.029 17.5 31.7768 17.5 30.5C17.5 29.2233 17.5732 27.971 17.7079 26.75H10.351ZM12.0106 21.75H18.6222C19.4305 18.5897 20.5977 15.757 21.8602 13.4069C22.1501 12.8675 22.447 12.3494 22.7485 11.8552C18.0458 13.6855 14.2065 17.2437 12.0106 21.75ZM22.7434 26.75C22.5865 27.9678 22.5 29.2213 22.5 30.5C22.5 31.7788 22.5865 33.0323 22.7434 34.25H37.2565C37.4135 33.0323 37.5 31.7788 37.5 30.5C37.5 29.2213 37.4135 27.9678 37.2565 26.75H22.7434ZM36.1905 21.75H23.8094C24.4757 19.5174 25.3395 17.4956 26.2648 15.7733C27.2803 13.8833 28.3348 12.4193 29.2168 11.4671C29.5245 11.1351 29.7883 10.8899 30 10.7176C30.2118 10.8899 30.4755 11.1351 30.7833 11.4671C31.6653 12.4193 32.7198 13.8833 33.7353 15.7733C34.6605 17.4956 35.5243 19.5174 36.1905 21.75ZM42.2923 26.75C42.4268 27.971 42.5 29.2233 42.5 30.5C42.5 31.7768 42.4268 33.029 42.2923 34.25H49.649C49.8795 33.0353 50 31.7818 50 30.5C50 29.2183 49.8795 27.9648 49.649 26.75H42.2923ZM47.9895 21.75H41.3778C40.5695 18.5897 39.4023 15.757 38.1398 13.4069C37.85 12.8675 37.553 12.3494 37.2515 11.8552C41.9543 13.6855 45.7935 17.2437 47.9895 21.75ZM22.7485 49.1448C18.0458 47.3145 14.2065 43.7563 12.0106 39.25H18.6222C19.4305 42.4103 20.5977 45.243 21.8602 47.593C22.1501 48.1325 22.447 48.6505 22.7485 49.1448ZM26.2648 45.2268C25.3395 43.5045 24.4757 41.4825 23.8094 39.25H36.1905C35.5243 41.4825 34.6605 43.5045 33.7353 45.2268C32.7198 47.1168 31.6653 48.5808 30.7833 49.533C30.4755 49.865 30.2118 50.1103 30 50.2825C29.7883 50.1103 29.5245 49.865 29.2168 49.533C28.3348 48.5808 27.2803 47.1168 26.2648 45.2268ZM38.1398 47.593C39.4023 45.243 40.5695 42.4103 41.3778 39.25H47.9895C45.7935 43.7563 41.9543 47.3145 37.2515 49.1448C37.553 48.6505 37.85 48.1325 38.1398 47.593Z"
        fill="#3b82f6" />
</svg>