<svg viewBox="0 0 60 61" fill="none" xmlns="http://www.w3.org/2000/svg">
    <path
        d="M32.5695 5.50253C34.3938 5.49553 36.2182 5.51386 38.042 5.55753L38.527 5.57503C39.087 5.59503 39.6395 5.62003 40.307 5.65003C42.967 5.77503 44.782 6.19503 46.3745 6.81253C48.0245 7.44753 49.4145 8.30753 50.8045 9.69753C52.0754 10.9465 53.0591 12.4574 53.687 14.125C54.3045 15.7175 54.7245 17.535 54.8495 20.195C54.8795 20.86 54.9045 21.415 54.9245 21.975L54.9395 22.46C54.9839 24.283 55.0031 26.1065 54.997 27.93L54.9995 29.795V33.07C55.0057 34.8944 54.9865 36.7187 54.942 38.5425L54.927 39.0275C54.907 39.5875 54.882 40.14 54.852 40.8075C54.727 43.4675 54.302 45.2825 53.687 46.875C53.0611 48.5444 52.0772 50.0565 50.8045 51.305C49.5544 52.5758 48.0428 53.5594 46.3745 54.1875C44.782 54.805 42.967 55.225 40.307 55.35C39.6395 55.38 39.087 55.405 38.527 55.425L38.042 55.44C36.2182 55.4845 34.3938 55.5036 32.5695 55.4975L30.7045 55.5H27.432C25.6076 55.5062 23.7833 55.487 21.9595 55.4425L21.4745 55.4275C20.881 55.406 20.2877 55.381 19.6945 55.3525C17.0345 55.2275 15.2195 54.8025 13.6245 54.1875C11.9562 53.5609 10.4451 52.5771 9.19699 51.305C7.9246 50.0557 6.94005 48.5439 6.31199 46.875C5.69449 45.2825 5.27449 43.4675 5.14949 40.8075C5.12165 40.2143 5.09665 39.621 5.07449 39.0275L5.06199 38.5425C5.0159 36.7187 4.99506 34.8944 4.99949 33.07V27.93C4.99251 26.1065 5.01085 24.283 5.05449 22.46L5.07199 21.975C5.09199 21.415 5.11699 20.86 5.14699 20.195C5.27199 17.5325 5.69199 15.72 6.30949 14.125C6.93792 12.4566 7.9244 10.9461 9.19949 9.70003C10.4467 8.42691 11.9569 7.44146 13.6245 6.81253C15.2195 6.19503 17.032 5.77503 19.6945 5.65003L21.4745 5.57503L21.9595 5.56253C23.7824 5.51646 25.606 5.49562 27.4295 5.50003L32.5695 5.50253ZM29.9995 18.0025C28.3433 17.9791 26.6989 18.2851 25.1619 18.9027C23.625 19.5203 22.2261 20.4372 21.0466 21.6002C19.8671 22.7631 18.9305 24.1489 18.2912 25.6769C17.6519 27.205 17.3227 28.8449 17.3227 30.5013C17.3227 32.1577 17.6519 33.7976 18.2912 35.3256C18.9305 36.8537 19.8671 38.2395 21.0466 39.4024C22.2261 40.5653 23.625 41.4823 25.1619 42.0999C26.6989 42.7175 28.3433 43.0235 29.9995 43C33.3147 43 36.4941 41.6831 38.8383 39.3389C41.1825 36.9947 42.4995 33.8152 42.4995 30.5C42.4995 27.1848 41.1825 24.0054 38.8383 21.6612C36.4941 19.317 33.3147 18.0025 29.9995 18.0025ZM29.9995 23.0025C30.9958 22.9842 31.9857 23.1645 32.9115 23.533C33.8373 23.9016 34.6803 24.4509 35.3914 25.1489C36.1025 25.8469 36.6674 26.6796 37.0531 27.5984C37.4388 28.5172 37.6375 29.5036 37.6377 30.5C37.6378 31.4964 37.4394 32.4829 37.0541 33.4018C36.6687 34.3207 36.1041 35.1536 35.3932 35.8519C34.6823 36.5501 33.8395 37.0997 32.9138 37.4685C31.9881 37.8374 30.9983 38.0181 30.002 38C28.0129 38 26.1052 37.2099 24.6987 35.8033C23.2922 34.3968 22.502 32.4892 22.502 30.5C22.502 28.5109 23.2922 26.6032 24.6987 25.1967C26.1052 23.7902 28.0129 23 30.002 23L29.9995 23.0025ZM43.1245 14.2525C42.318 14.2848 41.5552 14.6279 40.996 15.21C40.4368 15.792 40.1245 16.5679 40.1245 17.375C40.1245 18.1822 40.4368 18.958 40.996 19.5401C41.5552 20.1222 42.318 20.4652 43.1245 20.4975C43.9533 20.4975 44.7481 20.1683 45.3342 19.5822C45.9203 18.9962 46.2495 18.2013 46.2495 17.3725C46.2495 16.5437 45.9203 15.7489 45.3342 15.1628C44.7481 14.5768 43.9533 14.2475 43.1245 14.2475V14.2525Z" />
</svg>