<svg width="24" height="24" viewBox="0 0 24 24" fill="none" xmlns="http://www.w3.org/2000/svg">
<path d="M18.436 20.937H5.56201C4.89897 20.937 4.26309 20.6736 3.79424 20.2048C3.3254 19.7359 3.06201 19.1 3.06201 18.437V5.56299C3.06201 4.89995 3.3254 4.26406 3.79424 3.79522C4.26309 3.32638 4.89897 3.06299 5.56201 3.06299H18.436C19.0991 3.06299 19.7349 3.32638 20.2038 3.79522C20.6726 4.26406 20.936 4.89995 20.936 5.56299V18.437C20.936 19.1 20.6726 19.7359 20.2038 20.2048C19.7349 20.6736 19.0991 20.937 18.436 20.937ZM5.56201 4.06299C5.16419 4.06299 4.78266 4.22102 4.50135 4.50233C4.22005 4.78363 4.06201 5.16516 4.06201 5.56299V18.437C4.06201 18.8348 4.22005 19.2163 4.50135 19.4976C4.78266 19.779 5.16419 19.937 5.56201 19.937H18.436C18.8338 19.937 19.2154 19.779 19.4967 19.4976C19.778 19.2163 19.936 18.8348 19.936 18.437V5.56299C19.936 5.16516 19.778 4.78363 19.4967 4.50233C19.2154 4.22102 18.8338 4.06299 18.436 4.06299H5.56201Z" fill="#EEEEEE"/>
<path d="M6.54407 8.2832C6.41198 8.28092 6.28574 8.22834 6.19107 8.1362C6.09734 8.04244 6.04468 7.91528 6.04468 7.7827C6.04468 7.65012 6.09734 7.52297 6.19107 7.4292C6.2855 7.33682 6.41198 7.28451 6.54407 7.2832H7.55007C7.68208 7.28492 7.80841 7.33717 7.90307 7.4292C7.94965 7.47564 7.98662 7.53081 8.01184 7.59156C8.03707 7.6523 8.05006 7.71743 8.05007 7.7832C8.05007 7.91581 7.99739 8.04299 7.90362 8.13676C7.80986 8.23053 7.68268 8.2832 7.55007 8.2832H6.54407Z" fill="#EEEEEE"/>
<path d="M6.54408 12.5C6.41222 12.4976 6.28613 12.4454 6.19108 12.354C6.14452 12.3076 6.10758 12.2524 6.08237 12.1916C6.05716 12.1309 6.04419 12.0658 6.04419 12C6.04419 11.9342 6.05716 11.8691 6.08237 11.8084C6.10758 11.7476 6.14452 11.6924 6.19108 11.646C6.28574 11.554 6.41207 11.5017 6.54408 11.5H7.55008C7.68199 11.5022 7.80815 11.5544 7.90308 11.646C7.94965 11.6924 7.98659 11.7476 8.0118 11.8084C8.037 11.8691 8.04998 11.9342 8.04998 12C8.04998 12.0658 8.037 12.1309 8.0118 12.1916C7.98659 12.2524 7.94965 12.3076 7.90308 12.354C7.80843 12.446 7.6821 12.4983 7.55008 12.5H6.54408Z" fill="#EEEEEE"/>
<path d="M6.54407 16.7202C6.41198 16.7179 6.28574 16.6654 6.19107 16.5732C6.09734 16.4795 6.04468 16.3523 6.04468 16.2197C6.04468 16.0871 6.09734 15.96 6.19107 15.8662C6.28573 15.7742 6.41206 15.7219 6.54407 15.7202H7.55007C7.68208 15.7219 7.80841 15.7742 7.90307 15.8662C7.94965 15.9127 7.98662 15.9678 8.01184 16.0286C8.03707 16.0893 8.05006 16.1544 8.05007 16.2202C8.05007 16.3528 7.99739 16.48 7.90362 16.5738C7.80986 16.6675 7.68268 16.7202 7.55007 16.7202H6.54407Z" fill="#EEEEEE"/>
<path d="M10.554 8.28076C10.4213 8.28076 10.2942 8.22808 10.2004 8.13431C10.1066 8.04055 10.054 7.91337 10.054 7.78076C10.054 7.64815 10.1066 7.52098 10.2004 7.42721C10.2942 7.33344 10.4213 7.28076 10.554 7.28076H17.454C17.5866 7.28076 17.7137 7.33344 17.8075 7.42721C17.9013 7.52098 17.954 7.64815 17.954 7.78076C17.954 7.91337 17.9013 8.04055 17.8075 8.13431C17.7137 8.22808 17.5866 8.28076 17.454 8.28076H10.554Z" fill="#EEEEEE"/>
<path d="M10.554 12.5C10.4213 12.5 10.2942 12.4473 10.2004 12.3536C10.1066 12.2598 10.054 12.1326 10.054 12C10.054 11.8674 10.1066 11.7402 10.2004 11.6464C10.2942 11.5527 10.4213 11.5 10.554 11.5H17.454C17.5866 11.5 17.7137 11.5527 17.8075 11.6464C17.9013 11.7402 17.954 11.8674 17.954 12C17.954 12.1326 17.9013 12.2598 17.8075 12.3536C17.7137 12.4473 17.5866 12.5 17.454 12.5H10.554Z" fill="#EEEEEE"/>
<path d="M10.554 16.7178C10.4213 16.7178 10.2942 16.6651 10.2004 16.5713C10.1066 16.4776 10.054 16.3504 10.054 16.2178C10.054 16.0852 10.1066 15.958 10.2004 15.8642C10.2942 15.7705 10.4213 15.7178 10.554 15.7178H17.454C17.5866 15.7178 17.7137 15.7705 17.8075 15.8642C17.9013 15.958 17.954 16.0852 17.954 16.2178C17.954 16.3504 17.9013 16.4776 17.8075 16.5713C17.7137 16.6651 17.5866 16.7178 17.454 16.7178H10.554Z" fill="#EEEEEE"/>
</svg>
