<svg width="44" height="44" viewBox="0 0 44 44" fill="none" xmlns="http://www.w3.org/2000/svg">
<path d="M4.71387 10.9992C4.71387 10.5824 4.87943 10.1827 5.17413 9.888C5.46883 9.5933 5.86853 9.42773 6.2853 9.42773H34.571C34.9878 9.42773 35.3875 9.5933 35.6822 9.888C35.9769 10.1827 36.1424 10.5824 36.1424 10.9992C36.1424 11.4159 35.9769 11.8156 35.6822 12.1103C35.3875 12.405 34.9878 12.5706 34.571 12.5706H6.2853C5.86853 12.5706 5.46883 12.405 5.17413 12.1103C4.87943 11.8156 4.71387 11.4159 4.71387 10.9992ZM4.71387 32.9992C4.71387 32.5824 4.87943 32.1827 5.17413 31.888C5.46883 31.5933 5.86853 31.4277 6.2853 31.4277H31.4282C31.8449 31.4277 32.2446 31.5933 32.5393 31.888C32.834 32.1827 32.9996 32.5824 32.9996 32.9992C32.9996 33.4159 32.834 33.8156 32.5393 34.1103C32.2446 34.405 31.8449 34.5706 31.4282 34.5706H6.2853C5.86853 34.5706 5.46883 34.405 5.17413 34.1103C4.87943 33.8156 4.71387 33.4159 4.71387 32.9992ZM6.2853 20.4277C5.86853 20.4277 5.46883 20.5933 5.17413 20.888C4.87943 21.1827 4.71387 21.5824 4.71387 21.9992C4.71387 22.4159 4.87943 22.8156 5.17413 23.1103C5.46883 23.405 5.86853 23.5706 6.2853 23.5706H37.7139C38.1306 23.5706 38.5303 23.405 38.825 23.1103C39.1197 22.8156 39.2853 22.4159 39.2853 21.9992C39.2853 21.5824 39.1197 21.1827 38.825 20.888C38.5303 20.5933 38.1306 20.4277 37.7139 20.4277H6.2853Z" fill="white"/>
</svg>
