<svg width="60" height="61" viewBox="0 0 60 61" fill="none" xmlns="http://www.w3.org/2000/svg">
<path d="M55.5303 14.64C53.6225 15.484 51.5994 16.0384 49.5278 16.285C51.7105 14.9778 53.3435 12.9218 54.1228 10.5C52.0728 11.72 49.8253 12.575 47.4853 13.0375C45.9118 11.3539 43.8262 10.2374 41.5527 9.86146C39.2792 9.48552 36.9452 9.87123 34.9135 10.9586C32.8818 12.046 31.2663 13.7742 30.3181 15.8745C29.3699 17.9748 29.1422 20.3294 29.6703 22.5725C25.5127 22.3645 21.4452 21.2843 17.7322 19.4022C14.0191 17.52 10.7434 14.8779 8.11781 11.6475C7.18854 13.2436 6.7002 15.0581 6.70281 16.905C6.70281 20.53 8.55031 23.7325 11.3528 25.6075C9.69285 25.5551 8.06943 25.1069 6.61781 24.3V24.4275C6.61774 26.8422 7.4529 29.1826 8.98164 31.0517C10.5104 32.9208 12.6386 34.2036 15.0053 34.6825C13.4644 35.1005 11.8485 35.1621 10.2803 34.8625C10.9476 36.941 12.2483 38.7587 14.0003 40.061C15.7523 41.3633 17.8677 42.085 20.0503 42.125C17.8812 43.8286 15.3975 45.0879 12.7413 45.8309C10.0851 46.5739 7.30853 46.786 4.57031 46.455C9.34962 49.5284 14.9131 51.1602 20.5953 51.155C39.8303 51.155 50.3453 35.2225 50.3453 21.405C50.3453 20.955 50.3353 20.5 50.3153 20.0525C52.3613 18.5734 54.1273 16.7389 55.5303 14.64Z" fill="#272728"/>
</svg>
