<svg width="469" height="236" viewBox="0 0 469 236" fill="none" xmlns="http://www.w3.org/2000/svg">
<path d="M74.7846 51.4685C75.8191 49.6581 77.565 48.4295 80.0221 47.7829C82.6085 47.007 85.9061 46.619 89.9151 46.619C94.0533 46.619 97.351 47.0716 99.8081 47.9769C102.266 48.7528 104.011 50.1107 105.046 52.0505C106.081 53.861 106.662 55.5421 106.792 57.094C107.05 58.6458 107.18 60.9089 107.18 63.8833V171.737C107.18 176.78 106.533 180.531 105.24 182.988C104.076 185.315 102.201 186.867 99.6141 187.643C97.157 188.419 94.0533 188.807 90.303 188.807C86.5527 188.807 83.5784 188.484 81.3799 187.837C79.1815 187.191 77.5003 186.415 76.3364 185.509C75.1725 184.604 74.332 183.311 73.8147 181.63C73.0388 179.431 72.6508 176.069 72.6508 171.543V147.877H20.082C11.0296 147.877 5.66279 145.42 3.98162 140.506C3.33502 138.437 3.01172 135.656 3.01172 132.165C3.01172 128.673 3.2057 126.087 3.59366 124.405L19.6941 59.4217C20.47 56.4474 21.1166 54.1843 21.6339 52.6324C22.2805 51.0806 23.4444 49.5934 25.1255 48.1709C26.936 46.7483 29.1991 46.0371 31.9149 46.0371C34.6306 46.0371 37.605 46.4897 40.838 47.395C49.8904 49.852 54.4166 53.9903 54.4166 59.8097C54.4166 61.8788 53.964 64.5946 53.0587 67.9569C52.9294 68.2155 52.8648 68.4095 52.8648 68.5388L41.032 115.87H72.6508V62.9134C72.6508 59.939 72.7155 57.7406 72.8448 56.3181C73.1034 54.8955 73.75 53.279 74.7846 51.4685Z" fill="#3784FC"/>
<path d="M270.213 140.876L258.301 152.82C254.383 156.748 254.391 163.108 258.319 167.025L319.845 228.393C323.773 232.311 330.133 232.303 334.05 228.375L345.963 216.432C349.881 212.504 349.873 206.144 345.945 202.226L284.419 140.858C280.491 136.94 274.131 136.949 270.213 140.876Z" fill="#2D2F31"/>
<path d="M206.795 159.867C244.39 159.867 274.867 129.39 274.867 91.7948C274.867 54.1996 244.39 23.7227 206.795 23.7227C169.2 23.7227 138.723 54.1996 138.723 91.7948C138.723 129.39 169.2 159.867 206.795 159.867Z" fill="#BBE6FD"/>
<path d="M245.03 68.8968C251.241 68.8968 256.276 63.8622 256.276 57.6516C256.276 51.4409 251.241 46.4062 245.03 46.4062C238.82 46.4062 233.785 51.4409 233.785 57.6516C233.785 63.8622 238.82 68.8968 245.03 68.8968Z" fill="#E0F3FD"/>
<path d="M262.145 80.6319C265.386 80.6319 268.013 78.0049 268.013 74.7642C268.013 71.5236 265.386 68.8965 262.145 68.8965C258.904 68.8965 256.277 71.5236 256.277 74.7642C256.277 78.0049 258.904 80.6319 262.145 80.6319Z" fill="#E0F3FD"/>
<path d="M206.886 177.338C236.283 177.338 260.115 153.062 260.115 123.117C260.115 93.1719 236.283 68.8965 206.886 68.8965C177.488 68.8965 153.656 93.1719 153.656 123.117C153.656 153.062 177.488 177.338 206.886 177.338Z" fill="#3784FC"/>
<path d="M200.894 91.7949H198.194C197.802 91.7949 197.484 92.1127 197.484 92.5046V98.222C197.484 98.6139 197.802 98.9317 198.194 98.9317H200.894C201.286 98.9317 201.603 98.6139 201.603 98.222V92.5046C201.603 92.1127 201.286 91.7949 200.894 91.7949Z" fill="black"/>
<path d="M215.398 91.7949H212.698C212.306 91.7949 211.988 92.1127 211.988 92.5046V98.222C211.988 98.6139 212.306 98.9317 212.698 98.9317H215.398C215.79 98.9317 216.107 98.6139 216.107 98.222V92.5046C216.107 92.1127 215.79 91.7949 215.398 91.7949Z" fill="black"/>
<path d="M206.884 102.156C207.974 102.156 208.955 102.762 209.66 103.728C210.365 104.693 210.798 106.024 210.798 107.489C210.798 108.955 210.365 110.285 209.66 111.251C208.955 112.217 207.974 112.822 206.884 112.822C205.794 112.822 204.814 112.217 204.109 111.251C203.404 110.285 202.969 108.955 202.969 107.489C202.969 106.024 203.404 104.693 204.109 103.728C204.814 102.762 205.794 102.156 206.884 102.156Z" fill="white" stroke="black" stroke-width="0.15337"/>
<path d="M206.794 0C257.49 0 298.588 41.0976 298.588 91.7939C298.588 142.49 257.49 183.589 206.794 183.589C156.098 183.589 115 142.49 115 91.7939C115 41.0977 156.098 0.000103094 206.794 0ZM206.794 23.7217C169.199 23.7217 138.722 54.1988 138.722 91.7939C138.722 129.389 169.199 159.866 206.794 159.866C244.389 159.866 274.866 129.389 274.866 91.7939C274.866 54.1989 244.389 23.7217 206.794 23.7217Z" fill="#505050"/>
<path d="M402.272 51.4314C403.307 49.621 405.053 48.3924 407.51 47.7458C410.096 46.9699 413.394 46.5819 417.403 46.5819C421.541 46.5819 424.839 47.0345 427.296 47.9398C429.753 48.7157 431.499 50.0736 432.533 52.0134C433.568 53.8239 434.15 55.505 434.279 57.0569C434.538 58.6087 434.667 60.8718 434.667 63.8462V171.7C434.667 176.743 434.021 180.494 432.727 182.951C431.563 185.278 429.688 186.83 427.102 187.606C424.645 188.382 421.541 188.77 417.791 188.77C414.041 188.77 411.066 188.447 408.868 187.8C406.669 187.154 404.988 186.378 403.824 185.472C402.66 184.567 401.82 183.274 401.302 181.593C400.527 179.394 400.139 176.032 400.139 171.506V147.84H347.57C338.517 147.84 333.151 145.383 331.469 140.469C330.823 138.4 330.5 135.619 330.5 132.128C330.5 128.636 330.694 126.05 331.082 124.368L347.182 59.3846C347.958 56.4103 348.604 54.1472 349.122 52.5953C349.768 51.0435 350.932 49.5563 352.613 48.1338C354.424 46.7112 356.687 46 359.403 46C362.118 46 365.093 46.4526 368.326 47.3579C377.378 49.8149 381.904 53.9532 381.904 59.7726C381.904 61.8417 381.452 64.5575 380.547 67.9198C380.417 68.1784 380.353 68.3724 380.353 68.5017L368.52 115.833H400.139V62.8763C400.139 59.9019 400.203 57.7035 400.333 56.281C400.591 54.8584 401.238 53.2419 402.272 51.4314Z" fill="#3784FC"/>
<path d="M207.366 52.9324L207.351 52.6399C207.167 51.6148 207.308 50.753 207.773 50.0544C208.262 49.3516 208.835 48.8429 209.493 48.5282C210.15 48.2136 210.724 47.7785 211.215 47.223C211.729 46.6632 211.918 46.0019 211.782 45.239C211.641 44.4523 211.305 43.885 210.775 43.5371C210.269 43.185 209.575 43.0879 208.693 43.246C207.811 43.4042 207.181 43.6647 206.803 44.0277C206.445 44.3626 206.244 44.6816 206.2 44.9848L206.17 45.4331C206.066 46.0914 205.901 46.6131 205.675 46.9981C205.445 47.3593 205.103 47.5805 204.65 47.6617C204.197 47.7429 203.575 47.7067 202.785 47.5531C201.256 47.2612 200.419 46.71 200.274 45.8995C200.21 45.5419 200.217 45.1715 200.296 44.7882C200.371 44.3812 200.435 44.0499 200.487 43.7944C200.536 43.5151 200.707 43.0292 201.001 42.3367C201.319 41.64 201.7 41.0181 202.143 40.4712C202.606 39.8961 203.292 39.3302 204.201 38.7736C205.105 38.1931 206.154 37.796 207.346 37.5823C209.873 37.1293 212.08 37.5702 213.968 38.9049C215.856 40.2397 216.992 41.9798 217.377 44.1253C217.56 45.1504 217.541 46.1382 217.317 47.0886C217.114 48.0109 216.794 48.7694 216.36 49.364C215.49 50.5533 214.632 51.396 213.786 51.8922L213.246 52.1735C213.319 52.5788 213.351 52.893 213.341 53.1161C213.356 53.3349 213.292 53.5925 213.148 53.889C213.024 54.1573 212.758 54.3895 212.35 54.5856C211.962 54.7536 211.422 54.8996 210.731 55.0235C210.039 55.1474 209.469 55.1883 209.018 55.146C208.591 55.0995 208.269 54.9481 208.051 54.692C207.833 54.4358 207.681 54.2047 207.594 53.9987C207.528 53.7646 207.452 53.4091 207.366 52.9324ZM208.371 59.3588C208.493 58.9432 208.778 58.6092 209.225 58.3569C209.695 58.1003 210.455 57.8779 211.504 57.6899C212.553 57.5019 213.347 57.6056 213.885 58.0012C214.443 58.3687 214.842 59.2199 215.081 60.5549C215.252 61.5085 215.261 62.245 215.108 62.7646C214.951 63.2602 214.637 63.6364 214.166 63.893C213.715 64.1215 212.977 64.3276 211.952 64.5114C210.927 64.6952 210.095 64.5859 209.457 64.1836C208.979 63.851 208.653 63.1959 208.477 62.2185L208.375 61.6464C208.277 61.0981 208.214 60.6788 208.186 60.3884C208.183 60.0938 208.244 59.7506 208.371 59.3588Z" fill="#505050"/>
</svg>
