<svg width="390" height="844" viewBox="0 0 390 844" fill="none" xmlns="http://www.w3.org/2000/svg">
<g clip-path="url(#clip0_2046_3404)">
<rect width="390" height="844" fill="#82DCF6"/>
<path d="M335 664.824C335 655.89 342.242 648.647 351.176 648.647H420.824C429.758 648.647 437 655.89 437 664.824V664.824C437 673.758 429.758 681 420.824 681H351.176C342.242 681 335 673.758 335 664.824V664.824Z" fill="black" fill-opacity="0.2"/>
<path d="M24.5 565.647L39 644.5L53.7293 846.291C53.8819 848.382 55.6225 850 57.7187 850H278.245C280.356 850 282.104 848.359 282.237 846.252L295.428 637.641C295.475 636.895 295.312 636.151 294.958 635.493L290.585 627.37C289.743 625.805 290.034 623.872 291.301 622.625L296.758 617.25C297.981 616.045 299.836 615.755 301.368 616.529L315.49 623.662C316.793 624.32 318.352 624.216 319.556 623.39L324.217 620.192C325.304 619.446 325.954 618.212 325.954 616.893V610.889C325.954 609.759 325.236 608.754 324.168 608.387C322.31 607.749 321.771 605.38 323.169 604.001L329.309 597.945C330.071 597.194 330.5 596.168 330.5 595.098V590.761C330.5 589.268 329.668 587.899 328.342 587.211L320.892 583.346C318.051 581.872 318.006 577.823 320.814 576.287L327.111 572.841C328.628 572.011 330.507 572.25 331.768 573.433L353.247 593.581C355.035 595.258 357.897 594.947 359.283 592.925L373.3 572.472C373.756 571.806 374 571.018 374 570.21V556.521C374 554.74 372.823 553.173 371.112 552.678L334.632 542.124C333.077 541.674 331.947 540.332 331.768 538.724L330.149 524.195C329.885 521.825 331.74 519.752 334.124 519.752H344C346.209 519.752 348 517.961 348 515.752V508.405C348 507.2 347.457 506.059 346.521 505.299L339.432 499.546C338.719 498.967 337.829 498.651 336.911 498.651H299.43C297.221 498.651 295.43 496.861 295.43 494.651V493.156C295.43 490.947 297.221 489.156 299.43 489.156H325.654C327.863 489.156 329.654 487.365 329.654 485.156V475.453C329.654 474.429 329.261 473.444 328.556 472.7L304.745 447.589C303.754 446.544 303.402 445.048 303.821 443.671L308.753 427.478C308.868 427.1 308.927 426.708 308.927 426.313V419.621C308.927 418.589 308.489 417.606 307.722 416.915C306.955 416.225 306.517 415.241 306.517 414.209V364.854C306.517 364.041 306.269 363.247 305.806 362.578L269.728 310.441C269.205 309.684 268.436 309.131 267.552 308.875L236.921 300.001C236.406 299.852 235.867 299.808 235.335 299.871L136.022 311.719C135.003 311.84 133.976 311.566 133.153 310.951L115.481 297.743C114.949 297.346 114.328 297.087 113.671 296.99L100.237 295.003C98.2812 294.714 96.4076 295.896 95.8276 297.786L76.3127 361.372C75.8891 362.752 74.755 363.797 73.3449 364.106L16.1079 376.648C15.0779 376.873 14.1786 377.497 13.6058 378.382L9.72825 384.375C9.25567 385.105 9.03406 385.969 9.09702 386.837L13 440.624L24.5 565.647Z" fill="#195834"/>
<path d="M42.3675 636.5L28.3888 557.647L16.3382 432.624L12.1142 382.288C12.0402 381.405 12.261 380.523 12.7422 379.78L27.2066 357.432C27.9437 356.293 29.2079 355.605 30.5646 355.605H72.6707C74.4277 355.605 75.9791 354.459 76.4946 352.779L95.8276 289.786C96.4076 287.896 98.2812 286.714 100.237 287.003L113.671 288.99C114.328 289.087 114.949 289.346 115.481 289.743L133.153 302.951C133.976 303.566 135.003 303.84 136.022 303.719L208 295.132L236.141 291.775L267.615 300.893C268.461 301.138 269.202 301.655 269.723 302.363L308.087 354.465C308.63 355.203 308.904 356.105 308.861 357.021L306.541 407.307C306.525 407.654 306.554 408.002 306.628 408.342L308.705 417.89C308.85 418.558 308.822 419.252 308.623 419.905L303.821 435.671C303.402 437.048 303.754 438.544 304.745 439.589L328.556 464.7C329.261 465.444 329.654 466.429 329.654 467.453V477.156C329.654 479.365 327.863 481.156 325.654 481.156H299.43C297.221 481.156 295.43 482.947 295.43 485.156V486.651C295.43 488.861 297.221 490.651 299.43 490.651H336.054C337.465 490.651 338.772 491.395 339.493 492.609L347.274 505.71C348.858 508.376 346.936 511.752 343.835 511.752H334.124C331.74 511.752 329.885 513.825 330.149 516.195L331.768 530.724C331.947 532.332 333.077 533.674 334.632 534.124L371.112 544.678C372.823 545.173 374 546.74 374 548.521V562.21C374 563.018 373.756 563.806 373.3 564.472L359.283 584.925C357.897 586.947 355.035 587.258 353.247 585.581L331.768 565.433C330.507 564.25 328.628 564.011 327.111 564.841L319.049 569.253C316.668 570.555 316.248 573.801 318.219 575.667L329.077 585.943C330.713 587.492 330.748 590.086 329.154 591.678L323.086 597.742C321.835 598.992 321.553 600.915 322.394 602.472L325.354 607.954C326.399 609.89 325.685 612.307 323.754 613.364L319.449 615.719C318.293 616.352 316.901 616.375 315.725 615.781L301.368 608.529C299.836 607.755 297.981 608.045 296.758 609.25L290.911 615.009C289.839 616.064 289.45 617.633 289.905 619.067L295.209 635.804C295.355 636.264 295.417 636.747 295.39 637.229L283.706 852.217C283.59 854.339 281.836 856 279.711 856H61.7253C59.6264 856 57.8845 854.378 57.7354 852.284L42.3675 636.5Z" fill="#82DC82"/>
<path d="M25.1838 227.629L3.07339 222.363C1.27158 221.934 0 220.324 0 218.472V171.5C0 169.291 1.79086 167.5 4 167.5H110C112.209 167.5 114 169.291 114 171.5V229.789C114 231.999 112.209 233.789 110 233.789H103.14C101.771 233.789 100.497 233.089 99.7628 231.933L94.1398 223.074C93.5552 222.152 92.6197 221.51 91.5501 221.295L75.7881 218.13C74.1398 217.799 72.4604 218.534 71.5852 219.97L61.1532 237.082C60.427 238.273 59.1328 239 57.7378 239H36.0415C34.6852 239 33.4212 238.313 32.684 237.174L27.6147 229.346C27.0554 228.482 26.1848 227.867 25.1838 227.629Z" fill="#195834"/>
<path d="M25.1838 219.629L3.07339 214.363C1.27158 213.934 0 212.324 0 210.472V171.5C0 169.291 1.79086 167.5 4 167.5H110C112.209 167.5 114 169.291 114 171.5V221.789C114 223.999 112.209 225.789 110 225.789H103.14C101.771 225.789 100.497 225.089 99.7628 223.933L94.1398 215.074C93.5552 214.152 92.6197 213.51 91.5501 213.295L75.7881 210.13C74.1398 209.799 72.4604 210.534 71.5852 211.97L61.1532 229.082C60.427 230.273 59.1328 231 57.7378 231H36.0415C34.6852 231 33.4212 230.313 32.684 229.174L27.6147 221.346C27.0554 220.482 26.1848 219.867 25.1838 219.629Z" fill="#82DC82"/>
<path d="M23.9716 202.319L3.3288 198.805C1.40631 198.478 0 196.812 0 194.862V171C0 168.791 1.79086 167 4 167H104C106.209 167 108 168.791 108 171V202.472C108 204.681 106.209 206.472 104 206.472H97.426C96.2827 206.472 95.1941 205.982 94.435 205.128L89.2907 199.334C88.6627 198.627 87.8043 198.165 86.868 198.031L71.38 195.808C70.0219 195.613 68.6586 196.127 67.7683 197.171L58.0246 208.596C57.2646 209.487 56.1523 210 54.9812 210H33.8575C32.7281 210 31.6513 209.523 30.8931 208.686L26.2648 203.577C25.663 202.912 24.8554 202.469 23.9716 202.319Z" fill="#32A063"/>
<path d="M316.104 226.05L316.352 222.571C316.445 221.273 317.163 220.1 318.279 219.429L343.982 203.953C345.801 202.857 348.159 203.374 349.353 205.13L369.374 234.58C369.784 235.182 370.021 235.884 370.06 236.611L370.43 243.406C370.469 244.122 370.315 244.836 369.983 245.472L365.787 253.523C365.272 254.51 364.369 255.238 363.295 255.532L350.606 259.004C348.671 259.533 347.427 261.414 347.698 263.402L349.336 275.419C349.543 276.933 350.593 278.197 352.044 278.676L356.401 280.117C357.896 280.611 359.541 280.182 360.605 279.022L363.791 275.547C364.548 274.721 365.618 274.25 366.739 274.25H372C374.209 274.25 376 276.041 376 278.25V294.849C376 295.668 375.749 296.467 375.28 297.139L372.542 301.061C371.374 302.733 369.134 303.259 367.344 302.281L342.826 288.884C341.411 288.11 340.598 286.563 340.765 284.96L341.419 278.669C341.473 278.157 341.625 277.659 341.867 277.204L345.244 270.859C346.004 269.431 345.829 267.686 344.801 266.437L339.5 260L316.852 228.678C316.302 227.917 316.037 226.987 316.104 226.05Z" fill="#195834"/>
<path d="M317.035 220.375L326.787 200.016C327.32 198.902 328.339 198.097 329.546 197.835L344.303 194.634C346.036 194.258 347.809 195.067 348.66 196.622L369.606 234.886C370.167 235.91 370.252 237.129 369.839 238.221L365.7 249.166C365.247 250.363 364.249 251.271 363.014 251.609L350.738 254.967C348.747 255.512 347.497 257.483 347.854 259.517L349.26 267.537C349.515 268.988 350.546 270.181 351.945 270.644L356.401 272.117C357.896 272.611 359.541 272.182 360.605 271.022L363.791 267.547C364.548 266.721 365.618 266.25 366.739 266.25H372C374.209 266.25 376 268.041 376 270.25V286.849C376 287.668 375.749 288.467 375.28 289.139L372.542 293.061C371.374 294.733 369.134 295.259 367.344 294.281L343.544 281.276C341.793 280.319 341.015 278.218 341.721 276.351L343.711 271.089C344.005 270.311 344.05 269.461 343.838 268.656L340.683 256.664C340.555 256.178 340.337 255.721 340.04 255.316L317.417 224.468C316.545 223.278 316.398 221.705 317.035 220.375Z" fill="#82DC82"/>
<path d="M97.8274 289.286L79.3409 349.521C78.5159 352.209 80.6488 354.887 83.4534 354.684L85.9998 354.5H160.16C161.328 354.5 162.437 353.99 163.197 353.103L167.134 348.51C167.696 347.854 168.455 347.398 169.297 347.209L197.179 340.967C199.491 340.45 200.849 338.047 200.1 335.8L188.318 300.436C187.718 298.634 185.935 297.503 184.049 297.728L138.022 303.219C137.002 303.34 135.975 303.066 135.153 302.451L117.48 289.243C116.949 288.846 116.327 288.587 115.671 288.49L102.237 286.503C100.281 286.214 98.4074 287.396 97.8274 289.286Z" fill="#5FC764"/>
<path d="M102.069 300.034L87.0322 342.289C86.0698 344.994 88.1848 347.801 91.0497 347.623L92.1648 347.553H155.535C156.6 347.553 157.621 347.128 158.372 346.373L161.465 343.261C162.031 342.692 162.755 342.306 163.544 342.153L186.303 337.759C188.751 337.286 190.174 334.715 189.276 332.39L179.939 308.221C179.289 306.538 177.593 305.498 175.799 305.683L136.719 309.704C135.815 309.797 134.906 309.579 134.142 309.087L119.172 299.438C118.671 299.114 118.103 298.907 117.511 298.832L106.344 297.407C104.479 297.17 102.7 298.263 102.069 300.034Z" fill="#32A063"/>
<path d="M29.2066 356.827L14.7422 379.174C14.261 379.918 14.0402 380.8 14.1142 381.682L14.735 389.08C14.9448 391.58 17.3768 393.272 19.7933 392.599L37.9739 387.541C38.323 387.444 38.6837 387.395 39.0461 387.395H72.1794C74.5098 387.395 76.3469 385.41 76.1676 383.087L74.2849 358.692C74.1241 356.609 72.3866 355 70.2968 355L32.5646 355C31.2079 355 29.9437 355.688 29.2066 356.827Z" fill="#5FC764"/>
<path d="M150.659 453.409L31.5676 464.618C29.3404 464.828 27.3742 463.17 27.2043 460.94L25.2976 435.908C25.1323 433.737 26.7337 431.832 28.9008 431.623L145.337 420.354C147.408 420.154 149.286 421.574 149.658 423.62L154.22 448.711C154.64 451.018 152.994 453.189 150.659 453.409Z" fill="#32A063"/>
<path d="M137 489V507.6C137 509.809 138.791 511.6 141 511.6H144.38C145.868 511.6 147.233 510.774 147.923 509.456L153.377 499.044C154.067 497.726 155.432 496.9 156.92 496.9H159.543C163.107 496.9 164.891 492.591 162.372 490.072L158.472 486.172C157.721 485.421 156.704 485 155.643 485H141C138.791 485 137 486.791 137 489Z" fill="#5FC764"/>
<path d="M163.269 506.348L161.038 511.648C159.928 514.284 161.864 517.2 164.724 517.2H170.369C172.739 517.2 174.59 519.25 174.348 521.608L172.452 540.092C172.21 542.45 174.061 544.5 176.431 544.5H182.274C184.064 544.5 185.636 543.31 186.123 541.588L194.11 513.325C194.3 512.653 194.311 511.944 194.142 511.267L193.057 506.93C192.612 505.149 191.012 503.9 189.177 503.9H166.956C165.346 503.9 163.894 504.864 163.269 506.348Z" fill="#5FC764"/>
<path d="M324 647.176C324 638.242 331.242 631 340.176 631H409.824C418.758 631 426 638.242 426 647.176V647.176C426 656.11 418.758 663.353 409.824 663.353H340.176C331.242 663.353 324 656.11 324 647.176V647.176Z" fill="#EFFBFF"/>
<path d="M302 405.176C302 396.242 309.242 389 318.176 389H415.824C424.758 389 432 396.242 432 405.176V405.176C432 414.11 424.758 421.353 415.824 421.353H318.176C309.242 421.353 302 414.11 302 405.176V405.176Z" fill="black" fill-opacity="0.2"/>
<path d="M30.3885 557.266L44.3672 636.119L56.1833 772.465C56.3625 774.532 58.0931 776.119 60.1683 776.119H67.8932C70.3255 776.119 72.1948 773.967 71.8537 771.558L56.4194 662.583C56.1706 660.826 57.1091 659.115 58.7247 658.381L81.4398 648.056C82.7179 647.475 83.5979 646.266 83.7584 644.872L91.436 578.172C91.4782 577.805 91.5711 577.446 91.7118 577.105L96.7089 564.987C97.2047 563.784 97.0849 562.416 96.3877 561.318L92.6781 555.475C91.9442 554.319 90.6703 553.619 89.3013 553.619H62.8011C61.1192 553.619 59.617 552.567 59.042 550.987L53.6898 536.272C53.0075 534.396 51.0468 533.31 49.0949 533.728L32.0308 537.374C30.0433 537.799 28.6902 539.646 28.8852 541.669L30.3885 557.266Z" fill="#5FC764"/>
<path d="M30.3887 557.266L44.3674 636.119L56.164 772.242C56.3511 774.401 58.2221 776.018 60.3846 775.89L62.7062 775.753C65.0255 775.616 66.7407 773.539 66.4361 771.236L51.3921 657.465C51.1596 655.707 52.1124 654.006 53.733 653.285L75.9149 643.427C77.2072 642.852 78.1002 641.638 78.2635 640.233L85.4067 578.803C85.4683 578.273 85.6352 577.761 85.8976 577.296L90.8084 568.608C91.5409 567.312 91.4931 565.717 90.6844 564.467L87.682 559.827C86.9449 558.688 85.6806 558 84.3237 558H57.4761C55.7097 558 54.1524 556.841 53.6448 555.149L49.5512 541.504C48.9561 539.52 46.9451 538.319 44.9162 538.735L32.5038 541.281C30.5086 541.691 29.1395 543.534 29.324 545.562L30.3887 557.266Z" fill="#30A066"/>
<path d="M99.5177 630.55L94.1915 613.96C94.0646 613.565 94 613.152 94 612.737V611.64C94 609.196 96.1719 607.323 98.5889 607.683L108.74 609.194C110.194 609.411 111.412 610.407 111.912 611.789L112.678 613.907C113.252 615.49 114.755 616.545 116.44 616.545H128C130.209 616.545 132 618.336 132 620.545V635.736C132 638.658 128.968 640.594 126.317 639.365L116.176 634.662C115.751 634.465 115.294 634.344 114.827 634.305L102.992 633.314C101.382 633.179 100.012 632.089 99.5177 630.55Z" fill="#5FC764"/>
<path d="M109 672.456V673C109 675.209 110.791 677 113 677H131C133.209 677 135 675.209 135 673V671.833V653.096C135 651.216 133.69 649.589 131.853 649.188L120.801 646.776C118.784 646.336 116.765 647.502 116.137 649.468L109.189 671.24C109.064 671.633 109 672.043 109 672.456Z" fill="#5FC764"/>
<path d="M170.04 660.973L159.798 671.505C158.703 672.631 158.368 674.293 158.942 675.755L184.213 740.155C184.403 740.642 184.497 741.161 184.488 741.683L182.773 844.433C182.735 846.668 184.537 848.5 186.772 848.5H253.001C255.21 848.5 257.001 846.709 257.001 844.5V770.516C257.001 769.121 256.275 767.828 255.085 767.102L243.329 759.924C242.365 759.336 241.695 758.368 241.484 757.258L235.926 728.077C235.854 727.695 235.837 727.303 235.877 726.916L241.883 668.987C241.982 668.028 241.732 667.066 241.178 666.277L233.602 655.481C232.853 654.414 231.631 653.779 230.328 653.779H199.94C198.822 653.779 197.754 654.248 196.997 655.071L190.37 662.272C189.348 663.383 187.788 663.824 186.336 663.412L173.999 659.914C172.585 659.513 171.065 659.919 170.04 660.973Z" fill="#5FC764"/>
<path d="M178.713 668.433L171.685 675.728C170.65 676.803 170.299 678.364 170.774 679.779L189.859 736.508C190.003 736.934 190.073 737.382 190.068 737.832L188.764 844.451C188.737 846.679 190.536 848.5 192.764 848.5H241C243.209 848.5 245 846.709 245 844.5V772.71C245 771.618 244.554 770.573 243.765 769.818L234.505 760.964C233.852 760.34 233.429 759.513 233.306 758.618L229.012 727.357C228.972 727.061 228.964 726.761 228.99 726.464L233.539 674.443C233.62 673.511 233.372 672.579 232.838 671.811L227.563 664.224C226.816 663.149 225.589 662.508 224.279 662.508H202.21C201.085 662.508 200.012 662.982 199.254 663.813L194.932 668.554C193.908 669.677 192.336 670.123 190.875 669.705L182.694 667.363C181.271 666.956 179.74 667.367 178.713 668.433Z" fill="#32A063"/>
<path d="M201.626 610.721L198.527 617.428C197.661 619.302 198.363 621.526 200.147 622.564L221.265 634.847C223.268 636.012 225.837 635.237 226.863 633.161L228.958 628.919C229.758 627.299 229.34 625.342 227.949 624.189C225.898 622.49 226.116 619.28 228.379 617.874L228.517 617.788C229.646 617.087 231.049 616.992 232.262 617.535L241.35 621.601C243.996 622.785 246.983 620.849 246.983 617.95V613.889C246.983 611.68 248.774 609.889 250.983 609.889H263.087C264.835 609.889 266.381 608.754 266.904 607.086L267.793 604.251C268.458 602.13 267.265 599.873 265.138 599.227L262.261 598.353C260.906 597.942 259.87 596.844 259.536 595.467L256.485 582.869C255.884 580.385 253.139 579.095 250.843 580.216L249.003 581.114C247.749 581.726 246.266 581.64 245.091 580.887L238.449 576.632C237.805 576.219 237.056 576 236.291 576H224.827C223.128 576 221.615 577.072 221.052 578.675L217.919 587.597C217.488 588.825 217.681 590.186 218.437 591.245L222.765 597.313C224 599.044 223.665 601.438 222.002 602.764L214.522 608.728C213.599 609.464 212.398 609.755 211.24 609.522L206.046 608.478C204.231 608.113 202.403 609.041 201.626 610.721Z" fill="#5FC764"/>
<path d="M232.137 292.04L214.236 294.029C211.941 294.284 210.338 296.424 210.738 298.698L211.906 305.344C212.248 307.289 213.959 308.693 215.933 308.65L231.923 308.303C233.96 308.258 235.638 306.69 235.82 304.661L236.563 296.373C236.789 293.854 234.651 291.761 232.137 292.04Z" fill="#5FC764"/>
<path d="M139 438H128L133.5 416L139 438Z" fill="#195834"/>
<path d="M321 606H310L315.5 584L321 606Z" fill="#195834"/>
<path d="M316 472H305L310.5 450L316 472Z" fill="#195834"/>
<path d="M140 351H129L134.5 329L140 351Z" fill="#195834"/>
<path d="M223 618H212L217.5 596L223 618Z" fill="#195834"/>
<path d="M194 684H183L188.5 662L194 684Z" fill="#195834"/>
<path d="M71 591H60L65.5 569L71 591Z" fill="#195834"/>
<path d="M52 456H41L46.5 443L52 456Z" fill="#195834"/>
<path d="M295 597H284L289.5 584L295 597Z" fill="#195834"/>
<path d="M265 320H254L259.5 307L265 320Z" fill="#195834"/>
<path d="M256 602H245L250.5 589L256 602Z" fill="#195834"/>
<path d="M238 675H227L232.5 662L238 675Z" fill="#195834"/>
<path d="M83 631H72L77.5 618L83 631Z" fill="#195834"/>
<path d="M161 336H150L155.5 323L161 336Z" fill="#195834"/>
<path d="M77 443H64L70.5 418L77 443Z" fill="#195834"/>
<path d="M108 337H95L101.5 312L108 337Z" fill="#195834"/>
<path d="M245 329H232L238.5 304L245 329Z" fill="#195834"/>
<path d="M222 702H209L215.5 677L222 702Z" fill="#195834"/>
<path d="M87 177V287.343C87 288.404 87.4214 289.421 88.1716 290.172L108 310M108 310H154.843C155.904 310 156.921 310.421 157.672 311.172L167.328 320.828C168.079 321.579 169.096 322 170.157 322H217C219.209 322 221 323.791 221 326V403C221 405.209 222.791 407 225 407H260.5M108 310V342.843C108 343.904 107.579 344.921 106.828 345.672L100.672 351.828C99.9214 352.579 99.5 353.596 99.5 354.657V394.5C99.5 396.709 97.7091 398.5 95.5 398.5H91C88.7909 398.5 87 400.291 87 402.5V511.5M260.5 407V462.843C260.5 463.904 260.079 464.921 259.328 465.672L253.672 471.328C252.921 472.079 252.5 473.096 252.5 474.157V505.5M260.5 407V388.157C260.5 387.096 260.921 386.079 261.672 385.328L366.5 280.5L403 244M252.5 505.5L268.328 521.328C269.079 522.079 269.5 523.096 269.5 524.157V825.5M252.5 505.5L239.672 518.328C238.921 519.079 237.904 519.5 236.843 519.5H185.157C184.096 519.5 183.079 519.921 182.328 520.672L162.672 540.328C161.921 541.079 161.5 542.096 161.5 543.157V563.343C161.5 564.404 161.079 565.421 160.328 566.172L142.172 584.328C141.421 585.079 140.404 585.5 139.343 585.5H121.657C120.596 585.5 119.579 585.921 118.828 586.672L103.5 602M252.5 505.5H264.343C265.404 505.5 266.421 505.079 267.172 504.328L290.328 481.172C291.079 480.421 291.5 479.404 291.5 478.343V421.157C291.5 420.096 291.079 419.079 290.328 418.328L279 407M87 511.5H57.1569C56.096 511.5 55.0786 511.921 54.3284 512.672L33.1716 533.828C32.4214 534.579 32 535.596 32 536.657V556.343C32 557.404 32.4214 558.421 33.1716 559.172L47.8284 573.828C48.5786 574.579 49 575.596 49 576.657V673.301C49 673.764 49.0802 674.222 49.2369 674.657L104.5 828M87 511.5H92.5C94.7091 511.5 96.5 513.291 96.5 515.5V556.343C96.5 557.404 96.9214 558.421 97.6716 559.172L102.328 563.828C103.079 564.579 103.5 565.596 103.5 566.657V602M103.5 835V602" stroke="#367A41" stroke-width="6" stroke-linecap="round"/>
<path d="M87 177V287.343C87 288.404 87.4214 289.421 88.1716 290.172L108 310M108 310H154.843C155.904 310 156.921 310.421 157.672 311.172L167.328 320.828C168.079 321.579 169.096 322 170.157 322H217C219.209 322 221 323.791 221 326V403C221 405.209 222.791 407 225 407H260.5M108 310V342.843C108 343.904 107.579 344.921 106.828 345.672L100.672 351.828C99.9214 352.579 99.5 353.596 99.5 354.657V394.5C99.5 396.709 97.7091 398.5 95.5 398.5H91C88.7909 398.5 87 400.291 87 402.5V511.5M260.5 407V462.843C260.5 463.904 260.079 464.921 259.328 465.672L253.672 471.328C252.921 472.079 252.5 473.096 252.5 474.157V505.5M260.5 407V388.157C260.5 387.096 260.921 386.079 261.672 385.328L366.5 280.5L403 244M252.5 505.5L268.328 521.328C269.079 522.079 269.5 523.096 269.5 524.157V825.5M252.5 505.5L239.672 518.328C238.921 519.079 237.904 519.5 236.843 519.5H185.157C184.096 519.5 183.079 519.921 182.328 520.672L162.672 540.328C161.921 541.079 161.5 542.096 161.5 543.157V563.343C161.5 564.404 161.079 565.421 160.328 566.172L142.172 584.328C141.421 585.079 140.404 585.5 139.343 585.5H121.657C120.596 585.5 119.579 585.921 118.828 586.672L103.5 602M252.5 505.5H264.343C265.404 505.5 266.421 505.079 267.172 504.328L290.328 481.172C291.079 480.421 291.5 479.404 291.5 478.343V421.157C291.5 420.096 291.079 419.079 290.328 418.328L279 407M87 511.5H57.1569C56.096 511.5 55.0786 511.921 54.3284 512.672L33.1716 533.828C32.4214 534.579 32 535.596 32 536.657V556.343C32 557.404 32.4214 558.421 33.1716 559.172L47.8284 573.828C48.5786 574.579 49 575.596 49 576.657V673.301C49 673.764 49.0802 674.222 49.2369 674.657L104.5 828M87 511.5H92.5C94.7091 511.5 96.5 513.291 96.5 515.5V556.343C96.5 557.404 96.9214 558.421 97.6716 559.172L102.328 563.828C103.079 564.579 103.5 565.596 103.5 566.657V602M103.5 835V602" stroke="#EEEEEE" stroke-width="3" stroke-linecap="round"/>
<path d="M82.6379 471.887C79.7879 469.337 76.0379 467.987 72.1379 468.437C66.1379 468.887 61.1879 473.237 60.1379 478.787C59.3879 482.387 60.1379 485.987 62.3879 488.987L70.0379 499.637C70.6379 500.687 71.9879 501.287 73.3379 501.287C74.6879 501.287 76.0379 500.687 76.7879 499.487L84.4379 488.837C86.0879 486.587 86.8379 484.037 86.8379 481.337C86.8379 477.737 85.3379 474.287 82.6379 471.887Z" fill="#3A86FF"/>
<path d="M73.3379 486.437C76.1545 486.437 78.4379 484.154 78.4379 481.337C78.4379 478.521 76.1545 476.237 73.3379 476.237C70.5212 476.237 68.2379 478.521 68.2379 481.337C68.2379 484.154 70.5212 486.437 73.3379 486.437Z" fill="white"/>
<path d="M164.734 501.843C161.884 499.293 158.134 497.943 154.234 498.393C148.234 498.843 143.284 503.193 142.234 508.743C141.484 512.343 142.234 515.943 144.484 518.943L152.134 529.593C152.734 530.643 154.084 531.243 155.434 531.243C156.784 531.243 158.134 530.643 158.884 529.443L166.534 518.793C168.184 516.543 168.934 513.993 168.934 511.293C168.934 507.693 167.434 504.243 164.734 501.843Z" fill="#3A86FF"/>
<path d="M155.434 516.393C158.25 516.393 160.534 514.11 160.534 511.293C160.534 508.477 158.25 506.193 155.434 506.193C152.617 506.193 150.334 508.477 150.334 511.293C150.334 514.11 152.617 516.393 155.434 516.393Z" fill="white"/>
<path d="M134.29 479.887C131.44 477.337 127.69 475.987 123.79 476.437C117.79 476.887 112.84 481.237 111.79 486.787C111.04 490.387 111.79 493.987 114.04 496.987L121.69 507.637C122.29 508.687 123.64 509.287 124.99 509.287C126.34 509.287 127.69 508.687 128.44 507.487L136.09 496.837C137.74 494.587 138.49 492.037 138.49 489.337C138.49 485.737 136.99 482.287 134.29 479.887Z" fill="#3A86FF"/>
<path d="M124.99 494.437C127.807 494.437 130.09 492.154 130.09 489.337C130.09 486.521 127.807 484.237 124.99 484.237C122.174 484.237 119.89 486.521 119.89 489.337C119.89 492.154 122.174 494.437 124.99 494.437Z" fill="white"/>
<path d="M67.3 365.247C64.45 362.697 60.7 361.347 56.8 361.797C50.8 362.247 45.85 366.597 44.8 372.147C44.05 375.746 44.8 379.346 47.05 382.346L54.7 392.996C55.3 394.046 56.65 394.646 58 394.646C59.35 394.646 60.7 394.046 61.45 392.846L69.1 382.196C70.75 379.946 71.5 377.396 71.5 374.697C71.5 371.097 70 367.647 67.3 365.247Z" fill="#FF7700"/>
<path d="M58.0001 379.797C60.8166 379.797 63.1001 377.513 63.1001 374.697C63.1001 371.88 60.8166 369.597 58.0001 369.597C55.1834 369.597 52.9 371.88 52.9 374.697C52.9 377.513 55.1834 379.797 58.0001 379.797Z" fill="white"/>
<path d="M119.784 412.208C116.934 409.658 113.184 408.308 109.284 408.758C103.284 409.208 98.3344 413.558 97.2844 419.108C96.5344 422.708 97.2844 426.308 99.5344 429.308L107.184 439.958C107.784 441.008 109.134 441.608 110.484 441.608C111.834 441.608 113.184 441.008 113.934 439.808L121.584 429.158C123.234 426.908 123.984 424.358 123.984 421.658C123.984 418.058 122.484 414.608 119.784 412.208Z" fill="#3A86FF"/>
<path d="M110.484 426.758C113.301 426.758 115.584 424.475 115.584 421.658C115.584 418.841 113.301 416.558 110.484 416.558C107.668 416.558 105.384 418.841 105.384 421.658C105.384 424.475 107.668 426.758 110.484 426.758Z" fill="white"/>
<path d="M166.402 573.752C163.552 571.202 159.802 569.852 155.902 570.302C149.902 570.752 144.952 575.102 143.902 580.652C143.152 584.252 143.902 587.852 146.152 590.852L153.802 601.502C154.402 602.552 155.752 603.152 157.102 603.152C158.452 603.152 159.802 602.552 160.552 601.352L168.202 590.702C169.852 588.452 170.602 585.902 170.602 583.202C170.602 579.602 169.102 576.152 166.402 573.752Z" fill="#FF7700"/>
<path d="M157.102 588.302C159.918 588.302 162.202 586.019 162.202 583.202C162.202 580.385 159.918 578.102 157.102 578.102C154.285 578.102 152.002 580.385 152.002 583.202C152.002 586.019 154.285 588.302 157.102 588.302Z" fill="white"/>
<path d="M82.4934 531.768C79.6434 529.218 75.8934 527.868 71.9934 528.318C65.9934 528.768 61.0434 533.118 59.9934 538.668C59.2434 542.268 59.9934 545.868 62.2434 548.868L69.8934 559.518C70.4934 560.568 71.8434 561.168 73.1934 561.168C74.5434 561.168 75.8934 560.568 76.6434 559.368L84.2934 548.718C85.9434 546.468 86.6934 543.918 86.6934 541.218C86.6934 537.618 85.1934 534.168 82.4934 531.768Z" fill="#3A86FF"/>
<path d="M73.1934 546.319C76.01 546.319 78.2934 544.035 78.2934 541.219C78.2934 538.402 76.01 536.119 73.1934 536.119C70.3767 536.119 68.0934 538.402 68.0934 541.219C68.0934 544.035 70.3767 546.319 73.1934 546.319Z" fill="white"/>
<path d="M213.909 600.398C211.059 597.848 207.309 596.498 203.409 596.948C197.409 597.398 192.459 601.748 191.409 607.298C190.659 610.898 191.409 614.498 193.659 617.498L201.309 628.148C201.909 629.198 203.259 629.798 204.609 629.798C205.959 629.798 207.309 629.198 208.059 627.998L215.709 617.348C217.359 615.098 218.109 612.548 218.109 609.848C218.109 606.248 216.609 602.798 213.909 600.398Z" fill="#EA4335"/>
<path d="M204.609 614.949C207.426 614.949 209.709 612.665 209.709 609.849C209.709 607.032 207.426 604.749 204.609 604.749C201.793 604.749 199.509 607.032 199.509 609.849C199.509 612.665 201.793 614.949 204.609 614.949Z" fill="white"/>
<path d="M255.146 587.967C252.296 585.417 248.546 584.067 244.646 584.517C238.646 584.967 233.696 589.317 232.646 594.867C231.896 598.467 232.646 602.067 234.896 605.067L242.546 615.717C243.146 616.767 244.496 617.367 245.846 617.367C247.196 617.367 248.546 616.767 249.296 615.567L256.946 604.917C258.596 602.667 259.346 600.117 259.346 597.417C259.346 593.817 257.846 590.367 255.146 587.967Z" fill="#EA4335"/>
<path d="M245.846 602.517C248.662 602.517 250.946 600.234 250.946 597.417C250.946 594.601 248.662 592.317 245.846 592.317C243.029 592.317 240.746 594.601 240.746 597.417C240.746 600.234 243.029 602.517 245.846 602.517Z" fill="white"/>
<path d="M298.222 522.907C295.372 520.357 291.622 519.007 287.722 519.457C281.722 519.907 276.772 524.257 275.722 529.807C274.972 533.407 275.722 537.007 277.972 540.007L285.622 550.657C286.222 551.707 287.572 552.307 288.922 552.307C290.272 552.307 291.622 551.707 292.372 550.507L300.022 539.857C301.672 537.607 302.422 535.057 302.422 532.357C302.422 528.757 300.922 525.307 298.222 522.907Z" fill="#EA4335"/>
<path d="M288.922 537.457C291.739 537.457 294.022 535.174 294.022 532.357C294.022 529.54 291.739 527.257 288.922 527.257C286.105 527.257 283.822 529.54 283.822 532.357C283.822 535.174 286.105 537.457 288.922 537.457Z" fill="white"/>
<path d="M267.577 461.241C264.727 458.691 260.977 457.341 257.077 457.791C251.077 458.241 246.127 462.591 245.077 468.141C244.327 471.741 245.077 475.341 247.327 478.341L254.977 488.991C255.577 490.041 256.927 490.641 258.277 490.641C259.627 490.641 260.977 490.041 261.727 488.841L269.377 478.191C271.027 475.941 271.777 473.391 271.777 470.691C271.777 467.091 270.277 463.641 267.577 461.241Z" fill="#EA4335"/>
<path d="M258.277 475.791C261.094 475.791 263.377 473.508 263.377 470.691C263.377 467.875 261.094 465.591 258.277 465.591C255.461 465.591 253.177 467.875 253.177 470.691C253.177 473.508 255.461 475.791 258.277 475.791Z" fill="white"/>
<path d="M292.437 427.025C289.587 424.475 285.837 423.125 281.937 423.575C275.937 424.025 270.987 428.375 269.937 433.925C269.187 437.525 269.937 441.125 272.187 444.125L279.837 454.775C280.437 455.825 281.787 456.425 283.137 456.425C284.487 456.425 285.837 455.825 286.587 454.625L294.237 443.975C295.887 441.725 296.637 439.175 296.637 436.475C296.637 432.875 295.137 429.425 292.437 427.025Z" fill="#FF7700"/>
<path d="M283.137 441.576C285.953 441.576 288.237 439.292 288.237 436.475C288.237 433.659 285.953 431.375 283.137 431.375C280.32 431.375 278.037 433.659 278.037 436.475C278.037 439.292 280.32 441.576 283.137 441.576Z" fill="white"/>
<path d="M239.866 476.981C237.016 474.431 233.266 473.081 229.366 473.531C223.366 473.981 218.416 478.331 217.366 483.881C216.616 487.481 217.366 491.081 219.616 494.081L227.266 504.731C227.866 505.781 229.216 506.381 230.566 506.381C231.916 506.381 233.266 505.781 234.016 504.581L241.666 493.931C243.316 491.681 244.066 489.131 244.066 486.431C244.066 482.831 242.566 479.381 239.866 476.981Z" fill="#FF7700"/>
<path d="M230.566 491.532C233.383 491.532 235.666 489.248 235.666 486.432C235.666 483.615 233.383 481.332 230.566 481.332C227.75 481.332 225.466 483.615 225.466 486.432C225.466 489.248 227.75 491.532 230.566 491.532Z" fill="white"/>
<path d="M197.681 451.025C194.831 448.475 191.081 447.125 187.181 447.575C181.181 448.025 176.231 452.375 175.181 457.925C174.431 461.525 175.181 465.125 177.431 468.125L185.081 478.775C185.681 479.825 187.031 480.425 188.381 480.425C189.731 480.425 191.081 479.825 191.831 478.625L199.481 467.975C201.131 465.725 201.881 463.175 201.881 460.475C201.881 456.875 200.381 453.425 197.681 451.025Z" fill="#EA4335"/>
<path d="M188.381 465.576C191.197 465.576 193.481 463.292 193.481 460.475C193.481 457.659 191.197 455.375 188.381 455.375C185.564 455.375 183.281 457.659 183.281 460.475C183.281 463.292 185.564 465.576 188.381 465.576Z" fill="white"/>
<path d="M191.265 384.583C188.415 382.033 184.665 380.683 180.765 381.133C174.765 381.583 169.815 385.933 168.765 391.483C168.015 395.083 168.765 398.683 171.015 401.683L178.665 412.333C179.265 413.383 180.615 413.983 181.965 413.983C183.315 413.983 184.665 413.383 185.415 412.183L193.065 401.533C194.715 399.283 195.465 396.733 195.465 394.033C195.465 390.433 193.965 386.983 191.265 384.583Z" fill="#FF7700"/>
<path d="M181.965 399.134C184.781 399.134 187.065 396.85 187.065 394.034C187.065 391.217 184.781 388.934 181.965 388.934C179.148 388.934 176.865 391.217 176.865 394.034C176.865 396.85 179.148 399.134 181.965 399.134Z" fill="white"/>
<path d="M156.388 359.722C153.538 357.172 149.788 355.822 145.888 356.272C139.888 356.722 134.938 361.072 133.888 366.622C133.138 370.222 133.888 373.822 136.138 376.822L143.788 387.472C144.388 388.522 145.738 389.122 147.088 389.122C148.438 389.122 149.788 388.522 150.538 387.322L158.188 376.672C159.838 374.422 160.588 371.872 160.588 369.172C160.588 365.572 159.088 362.122 156.388 359.722Z" fill="#FF7700"/>
<path d="M147.088 374.272C149.904 374.272 152.188 371.988 152.188 369.172C152.188 366.355 149.904 364.072 147.088 364.072C144.271 364.072 141.988 366.355 141.988 369.172C141.988 371.988 144.271 374.272 147.088 374.272Z" fill="white"/>
<path d="M218.542 284.1C215.692 281.55 211.942 280.2 208.042 280.65C202.042 281.1 197.092 285.45 196.042 291C195.292 294.6 196.042 298.2 198.292 301.2L205.942 311.85C206.542 312.9 207.892 313.5 209.242 313.5C210.592 313.5 211.942 312.9 212.692 311.7L220.342 301.05C221.992 298.8 222.742 296.25 222.742 293.55C222.742 289.95 221.242 286.5 218.542 284.1Z" fill="#FF7700"/>
<path d="M209.242 298.65C212.059 298.65 214.342 296.367 214.342 293.55C214.342 290.734 212.059 288.45 209.242 288.45C206.426 288.45 204.142 290.734 204.142 293.55C204.142 296.367 206.426 298.65 209.242 298.65Z" fill="white"/>
<path fill-rule="evenodd" clip-rule="evenodd" d="M9 709C-6.46397 709 -19 721.536 -19 737C-19 742.1 -17.6365 746.882 -15.2541 751C-17.6365 755.118 -19 759.9 -19 765C-19 780.464 -6.46397 793 9 793H136C151.464 793 164 780.464 164 765C164 749.536 151.464 737 136 737H96C96 721.536 83.464 709 68 709H9Z" fill="black" fill-opacity="0.2"/>
<path fill-rule="evenodd" clip-rule="evenodd" d="M-4 700C-19.464 700 -32 712.536 -32 728C-32 733.1 -30.6365 737.882 -28.2541 742C-30.6365 746.118 -32 750.9 -32 756C-32 771.464 -19.464 784 -4 784H123C138.464 784 151 771.464 151 756C151 740.536 138.464 728 123 728H83C83 712.536 70.464 700 55 700H-4Z" fill="#EFFBFF"/>
<path fill-rule="evenodd" clip-rule="evenodd" d="M55.6712 232.243C55.6848 231 56.696 230 57.9387 230V230C58.7088 230 59.3964 230.435 60.0072 230.904C60.6119 231.369 61.3688 231.645 62.1902 231.645H64.5994C65.4121 231.645 66.1618 231.374 66.7633 230.919C67.3891 230.445 68.0898 230 68.8749 230V230C70.1416 230 71.1724 231.019 71.1864 232.286L71.6729 276.271C71.6834 277.223 70.9145 278 69.9624 278V278C69.0177 278 68.2519 277.234 68.2519 276.289V267.434C68.2519 264.766 66.0893 262.604 63.4217 262.604C60.754 262.604 58.5915 264.766 58.5915 267.434V276.298C58.5915 277.238 57.8296 278 56.8897 278V278C55.9426 278 55.1777 277.227 55.1881 276.28L55.6712 232.243ZM61.5991 234.782C59.9484 234.782 58.6102 236.12 58.6102 237.771C58.6102 239.422 59.9483 240.76 61.5991 240.76H65.1857C66.8364 240.76 68.1746 239.422 68.1746 237.771C68.1746 236.12 66.8364 234.782 65.1857 234.782H61.5991ZM61.592 243.581C59.9413 243.581 58.6032 244.919 58.6032 246.57C58.6032 248.221 59.9413 249.559 61.592 249.559H65.1975C66.8482 249.559 68.1864 248.221 68.1864 246.57C68.1864 244.919 66.8482 243.581 65.1975 243.581H61.592ZM58.6102 256.571C58.6102 254.194 60.5371 252.267 62.9142 252.267H63.8706C66.2476 252.267 68.1746 254.194 68.1746 256.571C68.1746 258.156 66.8899 259.44 65.3053 259.44H61.4795C59.8948 259.44 58.6102 258.156 58.6102 256.571Z" fill="#CF351D"/>
<path fill-rule="evenodd" clip-rule="evenodd" d="M103.978 232.243C103.992 231 105.003 230 106.246 230V230C107.016 230 107.703 230.435 108.314 230.904C108.919 231.369 109.676 231.645 110.497 231.645H112.906C113.719 231.645 114.469 231.374 115.07 230.919C115.696 230.445 116.397 230 117.182 230V230C118.449 230 119.479 231.019 119.493 232.286L119.98 276.271C119.99 277.223 119.222 278 118.269 278V278C117.325 278 116.559 277.234 116.559 276.289V267.434C116.559 264.766 114.396 262.604 111.729 262.604C109.061 262.604 106.898 264.766 106.898 267.434V276.298C106.898 277.238 106.137 278 105.197 278V278C104.25 278 103.485 277.227 103.495 276.28L103.978 232.243ZM109.906 234.782C108.255 234.782 106.917 236.12 106.917 237.771C106.917 239.422 108.255 240.76 109.906 240.76H113.493C115.143 240.76 116.482 239.422 116.482 237.771C116.482 236.12 115.143 234.782 113.493 234.782H109.906ZM109.899 243.581C108.248 243.581 106.91 244.919 106.91 246.57C106.91 248.221 108.248 249.559 109.899 249.559H113.505C115.155 249.559 116.493 248.221 116.493 246.57C116.493 244.919 115.155 243.581 113.505 243.581H109.899ZM106.917 256.571C106.917 254.194 108.844 252.267 111.221 252.267H112.178C114.555 252.267 116.482 254.194 116.482 256.571C116.482 258.156 115.197 259.44 113.612 259.44H109.787C108.202 259.44 106.917 258.156 106.917 256.571Z" fill="#CF351D"/>
<path d="M104.684 231.006C104.684 245.901 97.0254 257.975 87.5775 257.975C78.1296 257.975 70.4706 245.901 70.4706 231.006" stroke="#CF351D" stroke-width="5" stroke-linecap="square"/>
<path d="M135.88 257.975C126.432 257.975 118.773 245.901 118.773 231.006" stroke="#CF351D" stroke-width="5" stroke-linecap="square"/>
<path d="M39.0762 257.975C48.5241 257.975 56.1831 245.901 56.1831 231.006" stroke="#CF351D" stroke-width="5" stroke-linecap="square"/>
<rect x="39.0764" y="259.786" width="96.805" height="2.41509" fill="#CF351D"/>
<rect x="87.1752" y="257.975" width="0.805031" height="3.01887" fill="#CF351D"/>
<rect x="135.078" y="257.975" width="0.805031" height="3.01887" fill="#CF351D"/>
<rect x="131.05" y="257.17" width="0.805031" height="3.8239" fill="#CF351D"/>
<rect x="127.027" y="254.553" width="0.805031" height="6.44025" fill="#CF351D"/>
<rect x="122.999" y="249.723" width="0.805031" height="11.2704" fill="#CF351D"/>
<rect x="39.0764" y="257.975" width="0.805031" height="3.01887" fill="#CF351D"/>
<rect x="91.2029" y="257.371" width="0.805031" height="3.62264" fill="#CF351D"/>
<rect x="95.226" y="255.157" width="0.805031" height="5.83648" fill="#CF351D"/>
<rect x="99.2537" y="250.327" width="0.805031" height="10.6667" fill="#CF351D"/>
<rect x="75.1014" y="250.327" width="0.805031" height="10.6667" fill="#CF351D"/>
<rect x="79.1268" y="255.157" width="0.805031" height="5.83648" fill="#CF351D"/>
<rect x="47.1272" y="254.352" width="0.805031" height="6.64151" fill="#CF351D"/>
<rect x="51.1501" y="249.321" width="0.805031" height="11.673" fill="#CF351D"/>
<rect x="83.1521" y="257.371" width="0.805031" height="3.62264" fill="#CF351D"/>
<rect x="43.0995" y="257.371" width="0.805031" height="3.62264" fill="#CF351D"/>
<rect x="-12" y="286" width="125" height="33" rx="16.5" fill="black" fill-opacity="0.2"/>
<rect x="-22" y="273" width="125" height="33" rx="16.5" fill="#EFFBFF"/>
<rect x="-59" y="252" width="102" height="29" rx="14.5" fill="#EFFBFF"/>
<path d="M341 371.176C341 362.242 348.242 355 357.176 355H426.824C435.758 355 443 362.242 443 371.176V371.176C443 380.11 435.758 387.353 426.824 387.353H357.176C348.242 387.353 341 380.11 341 371.176V371.176Z" fill="#EFFBFF"/>
<path d="M290 389.176C290 380.242 297.242 373 306.176 373H403.824C412.758 373 420 380.242 420 389.176V389.176C420 398.11 412.758 405.353 403.824 405.353H306.176C297.242 405.353 290 398.11 290 389.176V389.176Z" fill="#EFFBFF"/>
<path d="M-36.4492 474.676C-36.4492 462.25 -26.3756 452 -13.9492 452H32.499C44.9255 452 54.9991 462.25 54.9991 474.676V474.676C54.9991 487.103 44.9255 497.353 32.4991 497.353H-13.9492C-26.3756 497.353 -36.4492 487.103 -36.4492 474.676V474.676Z" fill="black" fill-opacity="0.2"/>
<path d="M-47 462.676C-47 450.25 -36.9264 440 -24.5 440H21.9483C34.3747 440 44.4483 450.25 44.4483 462.676V462.676C44.4483 475.103 34.3747 485.353 21.9483 485.353H-24.5C-36.9264 485.353 -47 475.103 -47 462.676V462.676Z" fill="#EFFBFF"/>
</g>
<defs>
<clipPath id="clip0_2046_3404">
<rect width="390" height="844" fill="white"/>
</clipPath>
</defs>
</svg>
